<?xml version="1.0" encoding="utf-8"?>
<!-- Generator: Adobe Illustrator 16.0.4, SVG Export Plug-In . SVG Version: 6.00 Build 0)  -->
<!DOCTYPE svg PUBLIC "-//W3C//DTD SVG 1.1//EN" "http://www.w3.org/Graphics/SVG/1.1/DTD/svg11.dtd">
<svg version="1.1" id="Calque_1" xmlns="http://www.w3.org/2000/svg" xmlns:xlink="http://www.w3.org/1999/xlink" x="0px" y="0px"
	 width="96px" height="96px" viewBox="0 0 96 96" enable-background="new 0 0 96 96" xml:space="preserve">
<g id="Calque_2">
</g>
<g>
	<circle fill="#E9E1C5" cx="48" cy="48" r="45.711"/>
	<g>
		<path fill="#2A1600" d="M48,8.943c21.57,0,39.057,17.485,39.057,39.057S69.57,87.057,48,87.057S8.943,69.571,8.943,48
			S26.43,8.943,48,8.943 M48,2C22.636,2,2,22.636,2,48s20.636,46,46,46s46-20.636,46-46S73.364,2,48,2L48,2z"/>
	</g>
	<path fill="#2A1600" d="M79.74,51.326c0.176-1.382,0.266-2.792,0.266-4.227c0-17.072-13.818-30.912-30.912-30.912
		c-4.422,0-19.176,2.546-19.176,2.546c-1.658,0-3.002,1.344-3.002,3.003c0,1.658,1.344,3.001,3.002,3.001l1.738,0.337
		c1.658,0,3.002,1.344,3.002,3.001s-1.344,3.001-3.002,3.001l-5.548,0.338c-1.658,0-3.002,1.344-3.002,3.001
		c0,1.658,1.344,3.002,3.002,3.002l5.548,0.338c1.658,0,3.002,1.344,3.002,3.001s-1.344,3.001-3.002,3.001l-5.548,0.338
		c-1.658,0-3.002,1.344-3.002,3.001s1.344,3.001,3.002,3.001l5.548,0.338c1.658,0,3.002,1.343,3.002,3.002"/>
	<path fill="#AC5E06" d="M53.127,51.369l-21.471-0.622c1.658,0,3.002,1.288,3.002,2.946c0,1.657-1.344,2.875-3.002,2.875
		l-5.548,0.273c-1.658,0-3.002,1.313-3.002,2.971c0,1.657,1.344,2.984,3.002,2.984l5.548,0.33c1.658,0,3.002,1.34,3.002,2.998
		c0,1.657-1.344,3-3.002,3l-1.738,0.336c-1.658,0-3.002,1.343-3.002,3.001c0,1.659,1.344,3.001,3.002,3.001
		c0,0,14.653,3.055,19.176,3.055c17.192,0,29.114-11.15,30.74-27.15H53.127z"/>
	<circle fill="#0F0700" cx="56.311" cy="47.975" r="17.209"/>
	<circle fill="#E5D985" cx="50.367" cy="44.804" r="3.001"/>
	<circle fill="#EF371F" cx="61.939" cy="44.804" r="1.198"/>
	<circle fill="#E5D985" cx="62.256" cy="44.804" r="3.002"/>
</g>
</svg>
