<?xml version="1.0" encoding="utf-8"?>
<!-- Generator: Adobe Illustrator 16.0.0, SVG Export Plug-In . SVG Version: 6.00 Build 0)  -->
<!DOCTYPE svg PUBLIC "-//W3C//DTD SVG 1.1//EN" "http://www.w3.org/Graphics/SVG/1.1/DTD/svg11.dtd">
<svg version="1.1" id="Layer_1" xmlns="http://www.w3.org/2000/svg" xmlns:xlink="http://www.w3.org/1999/xlink" x="0px" y="0px"
	 width="84px" height="84px" viewBox="0 0 84 84" enable-background="new 0 0 84 84" xml:space="preserve">
<g id="Calque_1">
	<path fill="#334149" d="M41.872,75.999c-19.023,0-34.499-15.476-34.499-34.499c0-19.023,15.476-34.499,34.499-34.499
		c19.022,0,34.499,15.476,34.499,34.499C76.371,60.523,60.896,75.999,41.872,75.999z"/>
</g>
<g id="Calque_3">
	<path fill="#D3D6DE" d="M17.872,64c0,6.627,5.373,12,12,12h24c6.627,0,12-5.373,12-12"/>
	<g>
		<path fill="#00111C" d="M41.872,7.75c18.64,0,33.75,15.11,33.75,33.75c0,18.641-15.11,33.75-33.75,33.75
			c-18.64,0-33.75-15.109-33.75-33.75C8.122,22.86,23.232,7.75,41.872,7.75 M41.872,1.75c-21.918,0-39.75,17.832-39.75,39.75
			s17.832,39.75,39.75,39.75s39.75-17.832,39.75-39.75S63.79,1.75,41.872,1.75L41.872,1.75z"/>
	</g>
</g>
<g id="Calque_2">
</g>
</svg>
